<svg xmlns="http://www.w3.org/2000/svg" xmlns:xlink="http://www.w3.org/1999/xlink" viewBox="0 0 317.02 329.61"><defs><style>.cls-1{isolation:isolate;}.cls-10,.cls-11,.cls-12,.cls-13,.cls-14,.cls-15,.cls-16,.cls-17,.cls-18,.cls-19,.cls-2,.cls-20,.cls-21,.cls-22,.cls-23,.cls-24,.cls-25,.cls-26,.cls-27,.cls-28,.cls-29,.cls-3,.cls-30,.cls-31,.cls-32,.cls-33,.cls-34,.cls-35,.cls-36,.cls-37,.cls-38,.cls-39,.cls-4,.cls-40,.cls-41,.cls-42,.cls-43,.cls-44,.cls-45,.cls-46,.cls-47,.cls-48,.cls-49,.cls-5,.cls-50,.cls-51,.cls-52,.cls-53,.cls-54,.cls-55,.cls-56,.cls-57,.cls-58,.cls-59,.cls-6,.cls-60,.cls-61,.cls-62,.cls-63,.cls-64,.cls-65,.cls-66,.cls-67,.cls-68,.cls-69,.cls-7,.cls-70,.cls-71,.cls-72,.cls-73,.cls-74,.cls-75,.cls-76,.cls-77,.cls-78,.cls-79,.cls-8,.cls-80,.cls-9{fill:none;}.cls-10,.cls-11,.cls-12,.cls-13,.cls-14,.cls-15,.cls-16,.cls-17,.cls-18,.cls-19,.cls-2,.cls-20,.cls-21,.cls-22,.cls-23,.cls-24,.cls-25,.cls-26,.cls-27,.cls-28,.cls-29,.cls-3,.cls-30,.cls-31,.cls-32,.cls-33,.cls-34,.cls-35,.cls-36,.cls-37,.cls-38,.cls-39,.cls-4,.cls-40,.cls-41,.cls-42,.cls-43,.cls-44,.cls-45,.cls-46,.cls-47,.cls-48,.cls-49,.cls-5,.cls-50,.cls-51,.cls-52,.cls-53,.cls-54,.cls-55,.cls-56,.cls-57,.cls-58,.cls-59,.cls-6,.cls-60,.cls-61,.cls-62,.cls-63,.cls-64,.cls-65,.cls-66,.cls-67,.cls-68,.cls-69,.cls-7,.cls-70,.cls-71,.cls-72,.cls-73,.cls-74,.cls-75,.cls-76,.cls-77,.cls-78,.cls-79,.cls-8,.cls-80,.cls-89,.cls-9{stroke-miterlimit:10;}.cls-2{stroke:url(#radial-gradient);}.cls-3{stroke:url(#radial-gradient-2);}.cls-4{stroke:url(#radial-gradient-3);}.cls-5{stroke:url(#radial-gradient-4);}.cls-6{stroke:url(#radial-gradient-5);}.cls-7{stroke:url(#radial-gradient-6);}.cls-8{stroke:url(#radial-gradient-7);}.cls-9{stroke:url(#radial-gradient-8);}.cls-10{stroke:url(#radial-gradient-9);}.cls-11{stroke:url(#radial-gradient-10);}.cls-12{stroke:url(#radial-gradient-11);}.cls-13{stroke:url(#radial-gradient-12);}.cls-14{stroke:url(#radial-gradient-13);}.cls-15{stroke:url(#radial-gradient-14);}.cls-16{stroke:url(#radial-gradient-15);}.cls-17{stroke:url(#radial-gradient-16);}.cls-18{stroke:url(#radial-gradient-17);}.cls-19{stroke:url(#radial-gradient-18);}.cls-20{stroke:url(#radial-gradient-19);}.cls-21{stroke:url(#radial-gradient-20);}.cls-22{stroke:url(#radial-gradient-21);}.cls-23{stroke:url(#radial-gradient-22);}.cls-24{stroke:url(#radial-gradient-23);}.cls-25{stroke:url(#radial-gradient-24);}.cls-26{stroke:url(#radial-gradient-25);}.cls-27{stroke:url(#radial-gradient-26);}.cls-28{stroke:url(#radial-gradient-27);}.cls-29{stroke:url(#radial-gradient-28);}.cls-30{stroke:url(#radial-gradient-29);}.cls-31{stroke:url(#radial-gradient-30);}.cls-32{stroke:url(#radial-gradient-31);}.cls-33{stroke:url(#radial-gradient-32);}.cls-34{stroke:url(#radial-gradient-33);}.cls-35{stroke:url(#radial-gradient-34);}.cls-36{stroke:url(#radial-gradient-35);}.cls-37{stroke:url(#radial-gradient-36);}.cls-38{stroke:url(#radial-gradient-37);}.cls-39{stroke:url(#radial-gradient-38);}.cls-40{stroke:url(#radial-gradient-39);}.cls-41{stroke:url(#radial-gradient-40);}.cls-42{stroke:url(#radial-gradient-41);}.cls-43{stroke:url(#radial-gradient-42);}.cls-44{stroke:url(#radial-gradient-43);}.cls-45{stroke:url(#radial-gradient-44);}.cls-46{stroke:url(#radial-gradient-45);}.cls-47{stroke:url(#radial-gradient-46);}.cls-48{stroke:url(#radial-gradient-47);}.cls-49{stroke:url(#radial-gradient-48);}.cls-50{stroke:url(#radial-gradient-49);}.cls-51{stroke:url(#radial-gradient-50);}.cls-52{stroke:url(#radial-gradient-51);}.cls-53{stroke:url(#radial-gradient-52);}.cls-54{stroke:url(#radial-gradient-53);}.cls-55{stroke:url(#radial-gradient-54);}.cls-56{stroke:url(#radial-gradient-55);}.cls-57{stroke:url(#radial-gradient-56);}.cls-58{stroke:url(#radial-gradient-57);}.cls-59{stroke:url(#radial-gradient-58);}.cls-60{stroke:url(#radial-gradient-59);}.cls-61{stroke:url(#radial-gradient-60);}.cls-62{stroke:url(#radial-gradient-61);}.cls-63{stroke:url(#radial-gradient-62);}.cls-64{stroke:url(#radial-gradient-63);}.cls-65{stroke:url(#radial-gradient-64);}.cls-66{stroke:url(#radial-gradient-65);}.cls-67{stroke:url(#radial-gradient-66);}.cls-68{stroke:url(#radial-gradient-67);}.cls-69{stroke:url(#radial-gradient-68);}.cls-70{stroke:url(#radial-gradient-69);}.cls-71{stroke:url(#radial-gradient-70);}.cls-72{stroke:url(#radial-gradient-71);}.cls-73{stroke:url(#radial-gradient-72);}.cls-74{stroke:url(#radial-gradient-73);}.cls-75{stroke:url(#radial-gradient-74);}.cls-76{stroke:url(#radial-gradient-75);}.cls-77{stroke:url(#radial-gradient-76);}.cls-78{stroke:url(#radial-gradient-77);}.cls-79{stroke:url(#radial-gradient-78);}.cls-80{stroke:url(#radial-gradient-79);}.cls-81,.cls-89{fill:#fff;}.cls-82{fill:#91b83e;}.cls-82,.cls-85,.cls-86,.cls-87,.cls-88{mix-blend-mode:multiply;opacity:0.54;}.cls-83,.cls-84{fill:#308f43;}.cls-83{opacity:0.6;}.cls-84{opacity:0.2;}.cls-85{fill:#ffde11;}.cls-86{fill:#1ca049;}.cls-87{fill:#69a042;}.cls-88{fill:#60bc5c;}.cls-89{stroke:url(#radial-gradient-80);}.cls-90{font-size:37.4px;fill:#231f20;font-family:SFProDisplay-Medium, SF Pro Display;font-weight:500;}.cls-91{letter-spacing:-0.01em;}</style><radialGradient id="radial-gradient" cx="166.35" cy="91.24" r="12.35" gradientUnits="userSpaceOnUse"><stop offset="0" stop-color="#409644"/><stop offset="0.47" stop-color="#689743"/><stop offset="1" stop-color="#45844d"/></radialGradient><radialGradient id="radial-gradient-2" cx="166.35" cy="70.06" r="3.36" xlink:href="#radial-gradient"/><radialGradient id="radial-gradient-3" cx="177.99" cy="62.37" r="37.78" xlink:href="#radial-gradient"/><radialGradient id="radial-gradient-4" cx="142.74" cy="46.14" r="3.36" xlink:href="#radial-gradient"/><radialGradient id="radial-gradient-5" cx="146.34" cy="84.58" r="25.38" xlink:href="#radial-gradient"/><radialGradient id="radial-gradient-6" cx="192.51" cy="74.59" r="24.65" xlink:href="#radial-gradient"/><radialGradient id="radial-gradient-7" cx="194.2" cy="36.64" r="3.36" xlink:href="#radial-gradient"/><radialGradient id="radial-gradient-8" cx="245.86" cy="9.17" r="3.36" xlink:href="#radial-gradient"/><radialGradient id="radial-gradient-9" cx="138.95" cy="85.12" r="3.36" xlink:href="#radial-gradient"/><radialGradient id="radial-gradient-10" cx="139.01" cy="98.28" r="7.29" xlink:href="#radial-gradient"/><radialGradient id="radial-gradient-11" cx="132.61" cy="59.65" r="35.65" xlink:href="#radial-gradient"/><radialGradient id="radial-gradient-12" cx="87.49" cy="25.94" r="3.33" xlink:href="#radial-gradient"/><radialGradient id="radial-gradient-13" cx="58.18" cy="58.77" r="4.51" xlink:href="#radial-gradient"/><radialGradient id="radial-gradient-14" cx="129.32" cy="4.51" r="4.51" xlink:href="#radial-gradient"/><radialGradient id="radial-gradient-15" cx="175.69" cy="4.6" r="4.51" xlink:href="#radial-gradient"/><radialGradient id="radial-gradient-16" cx="219.58" cy="30.88" r="4.51" xlink:href="#radial-gradient"/><radialGradient id="radial-gradient-17" cx="89.77" cy="86.45" r="27.21" xlink:href="#radial-gradient"/><radialGradient id="radial-gradient-18" cx="203.07" cy="58.09" r="3.33" xlink:href="#radial-gradient"/><radialGradient id="radial-gradient-19" cx="225.29" cy="93.28" r="3.33" xlink:href="#radial-gradient"/><radialGradient id="radial-gradient-20" cx="197.31" cy="69.18" r="7.21" xlink:href="#radial-gradient"/><radialGradient id="radial-gradient-21" cx="263" cy="57.85" r="4.51" xlink:href="#radial-gradient"/><radialGradient id="radial-gradient-22" cx="230.98" cy="86" r="27.21" xlink:href="#radial-gradient"/><radialGradient id="radial-gradient-23" cx="87.46" cy="49.51" r="14.15" xlink:href="#radial-gradient"/><radialGradient id="radial-gradient-24" cx="219.81" cy="51.57" r="11.88" xlink:href="#radial-gradient"/><radialGradient id="radial-gradient-25" cx="232.94" cy="34.16" r="18.42" xlink:href="#radial-gradient"/><radialGradient id="radial-gradient-26" cx="225.86" cy="159.15" r="12.35" xlink:href="#radial-gradient"/><radialGradient id="radial-gradient-27" cx="247.04" cy="159.15" r="3.36" xlink:href="#radial-gradient"/><radialGradient id="radial-gradient-28" cx="254.73" cy="151.46" r="37.78" xlink:href="#radial-gradient"/><radialGradient id="radial-gradient-29" cx="288" cy="168.05" r="5.09" xlink:href="#radial-gradient"/><radialGradient id="radial-gradient-30" cx="235.58" cy="171.52" r="33.96" xlink:href="#radial-gradient"/><radialGradient id="radial-gradient-31" cx="231.98" cy="190.49" r="3.36" xlink:href="#radial-gradient"/><radialGradient id="radial-gradient-32" cx="218.83" cy="190.44" r="7.29" xlink:href="#radial-gradient"/><radialGradient id="radial-gradient-33" cx="273.12" cy="221.7" r="3.33" xlink:href="#radial-gradient"/><radialGradient id="radial-gradient-34" cx="291.16" cy="241.95" r="3.33" xlink:href="#radial-gradient"/><radialGradient id="radial-gradient-35" cx="254.23" cy="209.48" r="14.38" xlink:href="#radial-gradient"/><radialGradient id="radial-gradient-36" cx="258.2" cy="260.36" r="4.51" xlink:href="#radial-gradient"/><radialGradient id="radial-gradient-37" cx="312.5" cy="153.75" r="4.51" xlink:href="#radial-gradient"/><radialGradient id="radial-gradient-38" cx="286.22" cy="109.87" r="4.51" xlink:href="#radial-gradient"/><radialGradient id="radial-gradient-39" cx="230.63" cy="234.11" r="24.3" xlink:href="#radial-gradient"/><radialGradient id="radial-gradient-40" cx="248.38" cy="91.68" r="4.51" xlink:href="#radial-gradient"/><radialGradient id="radial-gradient-41" cx="227.56" cy="112.09" r="18.66" xlink:href="#radial-gradient"/><radialGradient id="radial-gradient-42" cx="267.59" cy="241.98" r="14.15" xlink:href="#radial-gradient"/><radialGradient id="radial-gradient-43" cx="265.53" cy="109.64" r="11.88" xlink:href="#radial-gradient"/><radialGradient id="radial-gradient-44" cx="282.94" cy="96.5" r="18.42" xlink:href="#radial-gradient"/><radialGradient id="radial-gradient-45" cx="94.11" cy="159.15" r="12.35" xlink:href="#radial-gradient"/><radialGradient id="radial-gradient-46" cx="72.93" cy="159.15" r="3.36" xlink:href="#radial-gradient"/><radialGradient id="radial-gradient-47" cx="62.29" cy="142.27" r="37.78" xlink:href="#radial-gradient"/><radialGradient id="radial-gradient-48" cx="33.94" cy="162.79" r="5.09" xlink:href="#radial-gradient"/><radialGradient id="radial-gradient-49" cx="86.36" cy="166.27" r="33.96" xlink:href="#radial-gradient"/><radialGradient id="radial-gradient-50" cx="87.99" cy="190.49" r="3.36" xlink:href="#radial-gradient"/><radialGradient id="radial-gradient-51" cx="101.14" cy="190.44" r="7.29" xlink:href="#radial-gradient"/><radialGradient id="radial-gradient-52" cx="62.52" cy="196.83" r="35.65" xlink:href="#radial-gradient"/><radialGradient id="radial-gradient-53" cx="28.81" cy="241.95" r="3.33" xlink:href="#radial-gradient"/><radialGradient id="radial-gradient-54" cx="61.64" cy="271.26" r="4.51" xlink:href="#radial-gradient"/><radialGradient id="radial-gradient-55" cx="7.38" cy="200.12" r="4.51" xlink:href="#radial-gradient"/><radialGradient id="radial-gradient-56" cx="4.51" cy="144.56" r="4.51" xlink:href="#radial-gradient"/><radialGradient id="radial-gradient-57" cx="33.75" cy="109.87" r="4.51" xlink:href="#radial-gradient"/><radialGradient id="radial-gradient-58" cx="89.32" cy="239.67" r="27.21" xlink:href="#radial-gradient"/><radialGradient id="radial-gradient-59" cx="92.41" cy="108.19" r="20.46" xlink:href="#radial-gradient"/><radialGradient id="radial-gradient-60" cx="52.38" cy="241.98" r="14.15" xlink:href="#radial-gradient"/><radialGradient id="radial-gradient-61" cx="54.44" cy="109.64" r="11.88" xlink:href="#radial-gradient"/><radialGradient id="radial-gradient-62" cx="170.29" cy="247.99" r="12.35" xlink:href="#radial-gradient"/><radialGradient id="radial-gradient-63" cx="170.29" cy="269.17" r="3.36" xlink:href="#radial-gradient"/><radialGradient id="radial-gradient-64" cx="177.99" cy="256.28" r="23.26" xlink:href="#radial-gradient"/><radialGradient id="radial-gradient-65" cx="149.39" cy="296.29" r="3.36" xlink:href="#radial-gradient"/><radialGradient id="radial-gradient-66" cx="129.06" cy="318.99" r="3.36" xlink:href="#radial-gradient"/><radialGradient id="radial-gradient-67" cx="152.98" cy="257.85" r="25.38" xlink:href="#radial-gradient"/><radialGradient id="radial-gradient-68" cx="193.74" cy="264.64" r="24.65" xlink:href="#radial-gradient"/><radialGradient id="radial-gradient-69" cx="195.43" cy="302.59" r="3.36" xlink:href="#radial-gradient"/><radialGradient id="radial-gradient-70" cx="175.92" cy="292.36" r="3.36" xlink:href="#radial-gradient"/><radialGradient id="radial-gradient-71" cx="138.95" cy="254.1" r="3.36" xlink:href="#radial-gradient"/><radialGradient id="radial-gradient-72" cx="139.01" cy="240.95" r="7.29" xlink:href="#radial-gradient"/><radialGradient id="radial-gradient-73" cx="132.61" cy="272.62" r="30.75" xlink:href="#radial-gradient"/><radialGradient id="radial-gradient-74" cx="87.61" cy="257.58" r="4.51" xlink:href="#radial-gradient"/><radialGradient id="radial-gradient-75" cx="103.02" cy="267.25" r="18.69" xlink:href="#radial-gradient"/><radialGradient id="radial-gradient-76" cx="262.08" cy="280.57" r="4.51" xlink:href="#radial-gradient"/><radialGradient id="radial-gradient-77" cx="230.98" cy="253.23" r="27.21" xlink:href="#radial-gradient"/><radialGradient id="radial-gradient-78" cx="212.11" cy="245.71" r="8.69" xlink:href="#radial-gradient"/><radialGradient id="radial-gradient-79" cx="212.38" cy="93.05" r="7.36" xlink:href="#radial-gradient"/><radialGradient id="radial-gradient-80" cx="158.51" cy="299.52" r="89.78" xlink:href="#radial-gradient"/></defs><g class="cls-1"><g id="Layer_2" data-name="Layer 2"><g id="Layer_1-2" data-name="Layer 1"><line class="cls-2" x1="166.35" y1="108.7" x2="166.35" y2="73.78"/><path class="cls-3" d="M169.22,70.06a2.87,2.87,0,1,1-2.87-2.86A2.87,2.87,0,0,1,169.22,70.06Z"/><polyline class="cls-4" points="180.28 115.72 180.28 35.58 175.7 31.92 175.7 9.02"/><path class="cls-5" d="M139.88,46.14a2.87,2.87,0,1,0,2.86-2.87A2.86,2.86,0,0,0,139.88,46.14Z"/><polyline class="cls-6" points="149.89 120.24 149.89 77.53 142.79 70.78 142.79 48.91"/><polyline class="cls-7" points="190.8 109.38 190.8 62.25 194.23 58.82 194.23 39.8"/><path class="cls-8" d="M197.06,36.64a2.86,2.86,0,1,1-2.86-2.87A2.86,2.86,0,0,1,197.06,36.64Z"/><path class="cls-9" d="M248.72,9.17a2.86,2.86,0,1,1-2.86-2.86A2.86,2.86,0,0,1,248.72,9.17Z"/><path class="cls-10" d="M141.81,85.12A2.86,2.86,0,1,1,139,82.26,2.86,2.86,0,0,1,141.81,85.12Z"/><line class="cls-11" x1="139.01" y1="108.58" x2="139.01" y2="87.97"/><polyline class="cls-12" points="128.88 109.89 128.88 81.9 136.35 74.43 136.35 25.57 129.18 18.4 129.18 9.41"/><path class="cls-13" d="M90.32,25.94a2.83,2.83,0,1,1-2.83-2.83A2.83,2.83,0,0,1,90.32,25.94Z"/><path class="cls-14" d="M62.19,58.77a4,4,0,1,1-4-4A4,4,0,0,1,62.19,58.77Z"/><path class="cls-15" d="M133.33,4.51a4,4,0,1,1-4-4A4,4,0,0,1,133.33,4.51Z"/><path class="cls-16" d="M179.7,4.6a4,4,0,1,1-4-4A4,4,0,0,1,179.7,4.6Z"/><path class="cls-17" d="M223.59,30.88a4,4,0,1,1-4-4A4,4,0,0,1,223.59,30.88Z"/><polyline class="cls-18" points="118.97 110.93 118.97 87.87 100.67 69.56 67.66 69.56 60.43 62.33"/><path class="cls-19" d="M200.24,58.09a2.83,2.83,0,1,0,2.83-2.82A2.83,2.83,0,0,0,200.24,58.09Z"/><path class="cls-20" d="M222.47,93.28a2.83,2.83,0,1,0,2.82-2.82A2.83,2.83,0,0,0,222.47,93.28Z"/><polyline class="cls-21" points="190.78 76.5 198.27 76.5 203.24 71.53 203.35 61.35"/><circle class="cls-22" cx="263" cy="57.85" r="4.01"/><polyline class="cls-23" points="201.78 110.47 201.78 87.42 220.09 69.11 253.09 69.11 260.32 61.88"/><line class="cls-24" x1="87.46" y1="69.51" x2="87.46" y2="29.51"/><line class="cls-25" x1="219.81" y1="68.37" x2="219.81" y2="34.77"/><polyline class="cls-26" points="219.58 56.02 235.69 56.02 245.81 45.91 245.81 11.8"/><line class="cls-27" x1="208.4" y1="159.15" x2="243.32" y2="159.15"/><path class="cls-28" d="M247,156.29a2.86,2.86,0,1,0,2.86,2.86A2.86,2.86,0,0,0,247,156.29Z"/><polyline class="cls-29" points="201.38 149.17 281.52 149.17 285.18 153.75 308.08 153.75"/><path class="cls-30" d="M288,163.45a4.6,4.6,0,1,0,4.59,4.6A4.6,4.6,0,0,0,288,163.45Z"/><polyline class="cls-31" points="187.72 175.02 258.7 175.02 265.69 168.03 283.43 168.03"/><path class="cls-32" d="M232,187.63a2.87,2.87,0,1,0,2.86,2.86A2.86,2.86,0,0,0,232,187.63Z"/><line class="cls-33" x1="208.52" y1="190.44" x2="229.13" y2="190.44"/><circle class="cls-34" cx="273.12" cy="221.7" r="2.83"/><path class="cls-35" d="M291.16,239.12A2.83,2.83,0,1,0,294,242,2.83,2.83,0,0,0,291.16,239.12Z"/><polyline class="cls-36" points="238.95 196.84 242.73 200.62 254.71 200.62 254.71 216.9 259.69 221.87 269.86 221.98"/><path class="cls-37" d="M258.2,256.35a4,4,0,1,0,4,4A4,4,0,0,0,258.2,256.35Z"/><path class="cls-38" d="M312.5,149.74a4,4,0,1,0,4,4A4,4,0,0,0,312.5,149.74Z"/><path class="cls-39" d="M286.22,105.85a4,4,0,1,0,4,4A4,4,0,0,0,286.22,105.85Z"/><polyline class="cls-40" points="206.17 210.47 229.23 210.47 247.54 228.78 247.54 252.14 254.77 257.85"/><path class="cls-41" d="M248.38,95.69a4,4,0,1,1,4-4A4,4,0,0,1,248.38,95.69Z"/><polyline class="cls-42" points="206.63 127.66 229.69 127.66 247.99 109.35 247.99 96.03"/><line class="cls-43" x1="247.59" y1="241.98" x2="287.59" y2="241.98"/><line class="cls-44" x1="248.73" y1="109.64" x2="282.33" y2="109.64"/><polyline class="cls-45" points="261.08 109.87 261.08 93.75 271.19 83.64 305.3 83.64"/><line class="cls-46" x1="111.57" y1="159.15" x2="76.65" y2="159.15"/><path class="cls-47" d="M72.93,156.29a2.86,2.86,0,1,1-2.86,2.86A2.86,2.86,0,0,1,72.93,156.29Z"/><polyline class="cls-48" points="115.64 139.97 35.5 139.97 31.83 144.56 8.94 144.56"/><path class="cls-49" d="M33.94,158.2a4.6,4.6,0,1,1-4.59,4.59A4.6,4.6,0,0,1,33.94,158.2Z"/><polyline class="cls-50" points="134.22 169.76 63.24 169.76 56.25 162.78 38.51 162.78"/><path class="cls-51" d="M88,187.63a2.87,2.87,0,1,1-2.86,2.86A2.87,2.87,0,0,1,88,187.63Z"/><line class="cls-52" x1="111.45" y1="190.44" x2="90.84" y2="190.44"/><polyline class="cls-53" points="112.76 200.57 84.77 200.57 77.3 193.1 28.44 193.1 21.27 200.27 12.28 200.27"/><path class="cls-54" d="M28.81,239.12A2.83,2.83,0,1,1,26,242,2.83,2.83,0,0,1,28.81,239.12Z"/><path class="cls-55" d="M61.64,267.25a4,4,0,1,1-4,4A4,4,0,0,1,61.64,267.25Z"/><path class="cls-56" d="M7.38,196.11a4,4,0,1,1-4,4A4,4,0,0,1,7.38,196.11Z"/><path class="cls-57" d="M4.51,140.55a4,4,0,1,1-4,4A4,4,0,0,1,4.51,140.55Z"/><path class="cls-58" d="M33.75,105.85a4,4,0,1,1-4,4A4,4,0,0,1,33.75,105.85Z"/><polyline class="cls-59" points="113.8 210.47 90.74 210.47 72.43 228.78 72.43 261.78 65.2 269.01"/><polyline class="cls-60" points="113.34 127.66 90.29 127.66 71.98 109.35 71.98 88.86 82.44 88.71"/><line class="cls-61" x1="72.38" y1="241.98" x2="32.38" y2="241.98"/><line class="cls-62" x1="71.24" y1="109.64" x2="37.64" y2="109.64"/><line class="cls-63" x1="170.29" y1="230.53" x2="170.29" y2="265.45"/><path class="cls-64" d="M173.16,269.17a2.87,2.87,0,1,0-2.87,2.86A2.87,2.87,0,0,0,173.16,269.17Z"/><polyline class="cls-65" points="180.28 223.5 180.28 273.56 175.7 277.23 175.7 289.05"/><path class="cls-66" d="M146.53,296.29a2.86,2.86,0,1,1,2.86,2.86A2.86,2.86,0,0,1,146.53,296.29Z"/><path class="cls-67" d="M126.2,319a2.87,2.87,0,1,1,2.86,2.86A2.86,2.86,0,0,1,126.2,319Z"/><polyline class="cls-68" points="156.53 222.19 156.53 264.89 149.44 271.65 149.44 293.51"/><polyline class="cls-69" points="192.03 229.85 192.03 276.98 195.46 280.41 195.46 299.43"/><path class="cls-70" d="M198.3,302.59a2.87,2.87,0,1,0-2.87,2.86A2.87,2.87,0,0,0,198.3,302.59Z"/><path class="cls-71" d="M178.78,292.36a2.86,2.86,0,1,0-2.86,2.87A2.86,2.86,0,0,0,178.78,292.36Z"/><path class="cls-72" d="M141.81,254.1A2.86,2.86,0,1,0,139,257,2.86,2.86,0,0,0,141.81,254.1Z"/><line class="cls-73" x1="139.01" y1="230.65" x2="139.01" y2="251.25"/><polyline class="cls-74" points="128.88 229.33 128.88 257.32 136.35 264.8 136.35 299.74 129.18 306.91 129.18 315.91"/><path class="cls-75" d="M91.62,257.58a4,4,0,1,0-4,4A4,4,0,0,0,91.62,257.58Z"/><polyline class="cls-76" points="118.66 246.31 118.66 269.37 100.35 287.68 87.38 287.68 87.61 261.7"/><path class="cls-77" d="M258.06,280.57a4,4,0,1,1,4,4A4,4,0,0,1,258.06,280.57Z"/><polyline class="cls-78" points="201.78 228.75 201.78 251.81 220.09 270.12 253.09 270.12 260.32 277.35"/><polyline class="cls-79" points="202.09 239.11 221.63 239.11 221.63 252.82"/><line class="cls-80" x1="201.98" y1="93.05" x2="222.78" y2="93.05"/><circle class="cls-81" cx="158.51" cy="161.18" r="104.04"/><path class="cls-82" d="M180.87,154.79c-1.05-1.24-19.29-22.47-20.63-24.1,6.87,5.48,14.85,13.57,21.57,21a60.47,60.47,0,0,0,.38-30.66,25.1,25.1,0,0,1-12.68,11.5c-7-10.21-5.07-24.09,2.7-32.75a60.32,60.32,0,1,0-86.15,83C118.86,208.92,167.6,194.36,180.87,154.79Zm-53.94-68c17.81.36,31.9,18.88,27.48,36.07C136.25,122.32,122.61,103.76,126.93,86.74Zm-15.32,49.78c12-12,33.94-9.39,42.83,5C142.26,153.56,120.46,150.79,111.61,136.52Zm16.26,33.74c8.85-16.3,32.7-20.51,46.53-8.18C165.39,178.56,141.62,182.46,127.87,170.26Z"/><path class="cls-83" d="M196,223.84a60.36,60.36,0,0,0-45-79.47c-8.61,5.93-20.21,6.13-29.24,1.43a60.31,60.31,0,1,0,74.23,78Zm-5.44-28.66c-10.21,15-33.63,16.43-45.55,3.39C155.21,183.62,178.46,182.1,190.53,195.18Zm-16.13-33.1c-9,16.48-32.78,20.38-46.53,8.18C136.72,154,160.57,149.75,174.4,162.08Z"/><path class="cls-84" d="M164.79,207.43A28.36,28.36,0,0,1,145,198.57c6.47-9.46,18.16-13.53,28.93-11.94a60.27,60.27,0,0,0,.43-24.44c-9.06,16.38-32.76,20.24-46.47,8.07C136.7,154,160.45,149.78,174.3,162c-.14-.7-.27-1.4-.43-2.11a60.34,60.34,0,1,0-9.08,47.55Zm-53.18-70.91c12-12,33.94-9.39,42.83,5C142.26,153.56,120.46,150.79,111.61,136.52Z"/><path class="cls-85" d="M127.87,170.26c8.85-16.3,32.7-20.51,46.53-8.18-6.22,11.38-19.48,16.75-31.61,15a60.21,60.21,0,0,0,48.42-7.56c-7.09-12.67-15.07-19.5-31-38.81,12.63,10.06,29,28.93,34.4,36.44a60.32,60.32,0,1,0-64.47,5A28.24,28.24,0,0,1,127.87,170.26Zm79.24-55.45c7.53,15.14-1.82,34.71-17.9,38.59C181.67,138.33,191,118.67,207.11,114.81ZM181.29,93.4c9.13,13.16,3.18,33.19-11.78,39.15C160.25,119.09,166.58,99.25,181.29,93.4Zm-54.36-6.66c17.81.36,31.9,18.88,27.48,36.07C136.25,122.32,122.61,103.76,126.93,86.74Zm-15.32,49.78c12-12,33.94-9.39,42.83,5C142.26,153.56,120.46,150.79,111.61,136.52Z"/><path class="cls-86" d="M240.5,98a60.32,60.32,0,0,0-93.1-1.47c6.28,7,9.44,16.85,7,26.28a28.13,28.13,0,0,1-17.94-7.26,60.5,60.5,0,0,0-3.08,13.52c8.39.75,16.46,5,21.05,12.45a27,27,0,0,1-19.9,7.56,59.18,59.18,0,0,0,3.5,10.59c11-6.76,26.33-6.53,36.36,2.41-5,9.21-14.69,14.49-24.62,15.22A59.71,59.71,0,0,0,162,187.15c10.06-2.4,21.31.19,28.54,8-.15.22-.31.43-.47.64a61.27,61.27,0,0,0,9.67-.24c-2.82-27.45-21.31-42.82-39.49-64.89,12.8,10.2,29.42,29.46,34.62,36.76a75.67,75.67,0,0,1,12.54,26.81C250.18,184.05,268.07,132.57,240.5,98Zm-71,34.55c-9.26-13.46-2.93-33.3,11.78-39.15C190.42,106.56,184.47,126.59,169.51,132.55Zm19.7,20.85c-7.54-15.07,1.81-34.73,17.9-38.59C214.64,130,205.29,149.52,189.21,153.4ZM211,187.9c-8.27-17,2.34-39.25,20.8-43.47C240.07,161.58,229.32,183.71,211,187.9Z"/><path class="cls-87" d="M215.37,114.5a60,60,0,0,0-30.91,1.09,26,26,0,0,1-15,17,24.22,24.22,0,0,1-3.49-7.67,60.44,60.44,0,0,0-13.54,13.91,23.32,23.32,0,0,1,2,2.73,25.63,25.63,0,0,1-6.32,4.57,60.5,60.5,0,0,0-4.2,10.77c10.14-3.62,22.13-2.22,30.48,5.22-6.4,11.7-20.25,17-32.66,14.81a60.05,60.05,0,0,0,4.64,19.83c10.81-13.19,32.6-14.06,44.15-1.54-9.17,13.47-29,16-41.56,6.92a60.13,60.13,0,0,0,43,30.68c13.07-24.12,11.4-51.8-12.28-79.38-7.45-8.68-18.48-21.54-19.44-22.71,12.8,10.2,29.42,29.46,34.62,36.76,17.89,25.11,16.35,48.15,8.91,66.16a60.33,60.33,0,0,0,11.6-119.11Zm-26.16,38.9c-7.54-15.07,1.81-34.73,17.9-38.59C214.64,130,205.29,149.52,189.21,153.4ZM211,187.9c-8.27-17,2.34-39.25,20.8-43.47C240.07,161.58,229.32,183.71,211,187.9Z"/><path class="cls-88" d="M193.52,229.71c18.18-38.78-6.59-67.87-13.84-76.31l-8.42-9.82c-41.35,4.54-65.8,48.67-47.76,86.13a60.1,60.1,0,0,0,35.05,31A59.18,59.18,0,0,0,193.52,229.71Zm-65.65-59.45c8.85-16.3,32.7-20.51,46.53-8.18C165.39,178.56,141.62,182.46,127.87,170.26Zm62.66,24.92c-10.21,15-33.63,16.43-45.55,3.39C155.21,183.62,178.46,182.1,190.53,195.18Z"/><path class="cls-88" d="M230.08,173.42A30.14,30.14,0,0,1,211,187.9c-5.12-10.52-3-23.07,3.75-32.09a60.57,60.57,0,0,0-14.5-8.28,25.46,25.46,0,0,1-11,5.87,25.1,25.1,0,0,1-2.58-9.54,59.53,59.53,0,0,0-12.67-.51,245.53,245.53,0,0,1,20.9,24.1c30.78,43.21,4,80.28-11.29,96.14a60.33,60.33,0,0,0,46.51-90.17Z"/><rect class="cls-89" x="34.17" y="276.89" width="248.67" height="45.27"/><text class="cls-90" transform="translate(41.76 312.7)">BHOOMI <tspan class="cls-91" x="152.95" y="0">C</tspan><tspan x="178.63" y="0">AM</tspan></text></g></g></g></svg>