<?xml version="1.0" encoding="UTF-8"?>
<svg id="Layer_2" data-name="Layer 2" xmlns="http://www.w3.org/2000/svg" viewBox="0 0 139.22 168.17">
  <defs>
    <style>
      .cls-1 {
        fill: #a87c4f;
        font-family: Poppins-SemiBold, Poppins;
        font-size: 19.39px;
        letter-spacing: .06em;
      }

      .cls-2 {
        fill: #69862a;
      }

      .cls-3 {
        fill: #808184;
      }

      .cls-4 {
        fill: #8ca738;
      }

      .cls-5 {
        fill: #929497;
      }

      .cls-6 {
        fill: #586f22;
      }

      .cls-7 {
        fill: #bbbdbf;
      }

      .cls-8 {
        fill: #8bc53f;
      }

      .cls-9 {
        fill: #41543b;
      }

      .cls-10 {
        fill: none;
        stroke: #d0d2d3;
        stroke-linecap: round;
        stroke-miterlimit: 10;
        stroke-width: 1.5px;
      }

      .cls-11 {
        fill: #e6e7e8;
      }

      .cls-12 {
        fill: #6d6e70;
      }
    </style>
  </defs>
  <g id="Layer_1-2" data-name="Layer 1">
    <g>
      <text class="cls-1" transform="translate(10.67 156.68) scale(.94 1)"><tspan x="0" y="0">BHOOMICAM</tspan></text>
      <circle class="cls-9" cx="69.48" cy="69.48" r="69.48"/>
      <path id="path24" class="cls-8" d="M99.31,62.77c1.02-1.08,2.04-2.16,3.06-3.23,1.31,1,2.63,2,3.94,3,.08,1.63,.16,3.25,.24,4.88-2.41,.05-4.82,.1-7.23,.16v-4.8Zm-12.08,32.55c2.58-1.76,5.25-3.51,8.02-5.23,13.62-8.49,27.01-14.9,39.56-19.77-.64,.03-1.28,.06-1.92,.09-5.9,.28-11.71,.67-17.42,1.16-.9,.11-1.79,.23-2.69,.34-.14-4.1-.27-8.2-.41-12.3-3.25-2.2-6.51-4.39-9.76-6.59-3.22,2.43-6.43,4.86-9.65,7.29,.13,4.89,.26,9.78,.39,14.66-6.75,2.13-11.91,3.97-14.56,5.06-.45,.19-.65,.26-.92,.37-1.4,.59-2.39,1.09-2.87,1.34-.83,.41-2.04,.98-3.67,1.61,2.32,1.52,4.72,3.19,7.17,5,3.17,2.34,6.07,4.68,8.73,6.97Z"/>
      <path id="path26" class="cls-8" d="M90.4,98.14c4.49,4.11,8.74,8.47,12.77,13.02,.36,.4,.71,.8,1.06,1.21,3.34-2.79,6.46-5.85,9.43-9.03,3.38-3.6,6.58-7.37,9.75-11.16,3.3-3.95,6.06-8.21,8.68-12.63,.98-1.65,1.96-3.31,2.93-4.98-.71,.23-1.41,.46-2.11,.71-15.26,5.34-29.07,13.97-42.51,22.87"/>
      <path id="path28" class="cls-8" d="M125.13,96.4c-.76,.93-4.09,4.98-8.96,9.94-3.63,3.69-6.98,6.72-9.79,9.12,1.13,1.32,2.27,2.68,3.41,4.08,1.12,1.37,2.2,2.73,3.24,4.08,1.17-.83,2.78-2.05,4.59-3.65,7.32-6.5,11.01-13.33,13.03-17.14,5.44-10.26,7.31-20.1,7.99-26.72-4.8,8.92-9.7,15.63-13.51,20.3Z"/>
      <path class="cls-8" d="M110.19,125.79c-1.3,.94-2.73,1.91-4.28,2.86-1.39,.86-2.74,1.62-4.03,2.3-.5-.48-1.01-.99-1.52-1.52-.56-.58-1.09-1.15-1.6-1.71,0,0-1.34-1.41-2.78-2.86-6.43-6.49-13.1-12.7-20.33-18.29-15.01-11.61-31.45-21.59-49.19-28.42-4.86-1.87-9.85-3.37-14.74-5.17-3.37-1.24-6.73-2.51-10.2-3.36,.41-.06,.82-.11,1.23-.16,3.68-.41,7.13-.34,10.3,.03,2.41,.36,4.82,.73,7.23,1.09,2.37,.42,5.74,1.02,9.86,1.81,.64,.12,1.17,.22,1.32,.25,3.92,.76,11.1,2.57,16.71,4.54,12.79,4.48,25.53,12.57,27.03,13.53,9.85,6.34,15.78,13.12,22.04,19.75,5.6,5.94,9.92,11.3,12.96,15.32Z"/>
      <path class="cls-11" d="M20.21,44.8c.04,8.69,.08,17.37,.12,26.06,.61,.14,1.23,.27,1.84,.41-.08-8.85-.16-17.7-.25-26.54-.57,.03-1.15,.05-1.72,.08Z"/>
      <path id="path32" class="cls-8" d="M91.85,124.91c-9.79-9.32-17.98-15.42-20.48-17.26-10.74-7.9-19.8-12.85-23.21-14.72-8.1-4.46-16.57-8.21-25.31-11.22-4.28-1.48-8.62-2.74-12.9-4.24-2.92-1.03-5.9-2.12-8.95-2.81,0,.11,.02,.21,.03,.32,6.35,3.97,12.79,7.8,19.03,11.95,13.57,9,25.47,20.08,37.02,31.49,2.98,2.94,9.42,8.19,16.48,16.51,1.2,1.41,2.36,2.85,2.36,2.85,.06,.07,.12,.15,.18,.22,.16,.2,.32,.4,.46,.6,3.28-.33,7.15-.96,11.41-2.13,4.43-1.22,8.2-2.74,11.27-4.19-1.8-1.88-4.31-4.44-7.39-7.37Z"/>
      <path id="path34" class="cls-8" d="M10.48,96.66c-.35-.38-1.87-2.06-3.97-4.3-1.7-1.81-3.1-3.28-4.03-4.25,1.44,5.1,4.14,12.47,9.4,20.24,3.26,4.81,8.16,10.76,15.26,16.22,5.78,4.44,11.29,7.24,15.44,8.99-8.47-12.18-14.69-19.21-18.99-23.46-.69-.68-8.67-8.55-13.11-13.44Z"/>
      <path id="path36" class="cls-8" d="M51.41,118.82c-6.72-7.47-12.6-12.49-17.4-16.59-1.49-1.28-8.4-7.41-18.64-14.24-4.4-2.93-8.87-5.75-13.32-8.6,0,.01,0,.03,0,.04,4.86,4.84,9.25,10.12,13.75,15.29,4.2,4.82,8.72,9.32,12.95,14.1,4.05,4.59,7.27,8.61,9.57,11.61,.4,.52,1.12,1.47,2.01,2.67,2.51,3.38,5.54,7.67,8.84,12.85,2.99,.91,6.54,1.77,10.59,2.34,4.34,.61,8.24,.74,11.53,.65-.87-.84-2.17-2.09-3.76-3.6-3.36-3.19-5.76-4.97-16.13-16.51Z"/>
      <g>
        <path class="cls-11" d="M31.08,45.95l-2.28,.98c-2.02-1.27-4.05-2.54-6.07-3.81l.69-1.23c.09-.11,.23-.23,.41-.28,.25-.06,.48,.07,.58,.13,.43,.25,3.07,1.91,6.68,4.2Z"/>
        <path class="cls-11" d="M30.3,46.68c-.36,.58-.73,1.16-1.09,1.73-2.05-1.24-4.11-2.47-6.16-3.71,.14-.28,.29-.55,.43-.83,1.75,1.1,3.51,2.19,5.26,3.29,.52-.16,1.04-.33,1.56-.49Z"/>
        <path class="cls-11" d="M26.79,47.42c-.61-.39-1.22-.78-1.82-1.17-.02,.09-.07,.3,0,.55,.07,.25,.21,.4,.27,.46-.14,.44-.27,.89-.41,1.33-.69-.01-1.39-.03-2.08-.04,0,.23-.02,.45-.03,.68,.84,0,1.68,.02,2.51,.03,.17-.41,.33-.82,.5-1.23,.06-.13,.13-.26,.19-.39,.07,.03,.23,.07,.43,.03,.23-.05,.38-.19,.43-.25Z"/>
        <path class="cls-11" d="M21.64,47.43c.12-.04,.34-.09,.57-.01,.09,.03,.2,.07,.26,.19,.03,.07,.03,.15,.03,.19,0,.8,0,1.59-.01,2.39-.02,.03-.06,.12-.16,.17-.12,.07-.24,.04-.27,.03-.14,0-.27,0-.41,.01v-2.97Z"/>
        <path class="cls-11" d="M31.29,46.74c-.3,.57-.59,1.15-.89,1.72-.21-.14-.41-.27-.62-.41,.31-.57,.62-1.14,.93-1.71,.19,.13,.39,.26,.58,.39Z"/>
      </g>
      <g>
        <path class="cls-11" d="M84.34,27.79c1.99,1.03,3.98,2.06,5.97,3.08,1.43-2.61,2.87-5.23,4.3-7.84-.12-.28-.23-.55-.35-.83-1.64-.9-3.29-1.79-4.93-2.69-.2,.09-.39,.17-.59,.26-1.47,2.67-2.94,5.34-4.4,8.02Z"/>
        <path class="cls-11" d="M83.97,28.12c-.39,.27-.78,.55-1.17,.82-.02,.01-.09,.09-.09,.21,0,.1,.06,.2,.16,.25,2.2,1.23,4.39,2.45,6.59,3.68,.09,.07,.22,.06,.31,0,.08-.06,.11-.16,.08-.25,.03-.42,.06-.83,.09-1.25,0-.03,.02-.11-.02-.19-.07-.14-.22-.16-.24-.17-1.9-1.03-3.8-2.07-5.71-3.1Z"/>
        <path class="cls-11" d="M85.17,31.16c.52,.29,1.04,.57,1.56,.86-.8,.98-1.6,1.97-2.41,2.95,0,.02,.06,.14,0,.27-.06,.13-.22,.2-.36,.18-.16-.02-.3-.15-.3-.31,0-.14,.11-.26,.26-.3,.42-1.21,.84-2.43,1.26-3.64Z"/>
        <path class="cls-11" d="M90.43,19.69c.2-.07,.4-.13,.59-.2,.04-.01,.08-.02,.12-.03,.16-.03,.3,0,.4,.02,.52,.29,1.05,.59,1.57,.88,.07,.04,.16,.11,.23,.22,.07,.12,.08,.21,.13,.4,.02,.1,.06,.24,.13,.4-1.06-.57-2.12-1.13-3.18-1.7Z"/>
        <path class="cls-11" d="M76.17,14.58c-.44,.78-.88,1.56-1.33,2.34,1.17,.67,2.33,1.34,3.5,2.01,.46-.79,.92-1.59,1.38-2.38-1.18-.66-2.37-1.31-3.55-1.97Z"/>
        <path class="cls-11" d="M80.03,16.68c-.44,.78-.88,1.56-1.33,2.34,1.17,.67,2.33,1.34,3.5,2.01,.46-.79,.92-1.59,1.38-2.38-1.18-.66-2.37-1.31-3.55-1.97Z"/>
        <path class="cls-11" d="M83.94,18.85c-.44,.78-.88,1.56-1.33,2.34,1.17,.67,2.33,1.34,3.5,2.01,.46-.79,.92-1.59,1.38-2.38-1.18-.66-2.37-1.31-3.55-1.97Z"/>
        <path class="cls-11" d="M74.75,17.15c-.44,.78-.88,1.56-1.33,2.34,1.17,.67,2.33,1.34,3.5,2.01,.46-.79,.92-1.59,1.38-2.38-1.18-.66-2.37-1.31-3.55-1.97Z"/>
        <path class="cls-11" d="M78.6,19.32c-.44,.78-.88,1.56-1.33,2.34,1.17,.67,2.33,1.34,3.5,2.01,.46-.79,.92-1.59,1.38-2.38-1.18-.66-2.37-1.31-3.55-1.97Z"/>
        <path class="cls-11" d="M82.46,21.44c-.44,.78-.88,1.56-1.33,2.34,1.17,.67,2.33,1.34,3.5,2.01,.46-.79,.92-1.59,1.38-2.38-1.18-.66-2.37-1.31-3.55-1.97Z"/>
        <path class="cls-11" d="M94.31,24.86c-.44,.78-.88,1.56-1.33,2.34,1.17,.67,2.33,1.34,3.5,2.01,.46-.79,.92-1.59,1.38-2.38-1.18-.66-2.37-1.31-3.55-1.97Z"/>
        <path class="cls-11" d="M98.17,26.96c-.44,.78-.88,1.56-1.33,2.34,1.17,.67,2.33,1.34,3.5,2.01,.46-.79,.92-1.59,1.38-2.38-1.18-.66-2.37-1.31-3.55-1.97Z"/>
        <path class="cls-11" d="M102.08,29.13c-.44,.78-.88,1.56-1.33,2.34,1.17,.67,2.33,1.34,3.5,2.01,.46-.79,.92-1.59,1.38-2.38-1.18-.66-2.37-1.31-3.55-1.97Z"/>
        <path class="cls-11" d="M92.88,27.43c-.44,.78-.88,1.56-1.33,2.34,1.17,.67,2.33,1.34,3.5,2.01,.46-.79,.92-1.59,1.38-2.38-1.18-.66-2.37-1.31-3.55-1.97Z"/>
        <path class="cls-11" d="M96.73,29.6c-.44,.78-.88,1.56-1.33,2.34,1.17,.67,2.33,1.34,3.5,2.01,.46-.79,.92-1.59,1.38-2.38-1.18-.66-2.37-1.31-3.55-1.97Z"/>
        <path class="cls-11" d="M100.59,31.72c-.44,.78-.88,1.56-1.33,2.34,1.17,.67,2.33,1.34,3.5,2.01,.46-.79,.92-1.59,1.38-2.38-1.18-.66-2.37-1.31-3.55-1.97Z"/>
      </g>
      <g>
        <path class="cls-10" d="M80.56,36.17c.05,.21,.36,1.43,1.63,2.15,1.26,.71,2.51,.39,2.72,.33"/>
        <path class="cls-10" d="M77.86,36.87c.12,.44,.75,2.55,2.98,3.84,2.01,1.17,4,.91,4.53,.83"/>
      </g>
      <g>
        <rect class="cls-12" x="68.22" y="66.4" width=".32" height=".45"/>
        <rect class="cls-12" x="70.34" y="66.4" width=".32" height=".45"/>
        <path class="cls-5" d="M65.35,68.18c-.17,0-.3-.14-.3-.3,0-2.52,1.72-3.43,1.8-3.47,.15-.08,.33-.02,.41,.13,.08,.15,.02,.33-.13,.41-.06,.03-1.47,.8-1.47,2.93,0,.17-.14,.3-.3,.3Z"/>
        <path class="cls-5" d="M73.53,68.18c-.17,0-.3-.14-.3-.3,0-2.14-1.41-2.9-1.47-2.93-.15-.08-.21-.26-.13-.41,.08-.15,.26-.21,.41-.13,.07,.04,1.8,.95,1.8,3.47,0,.17-.14,.3-.3,.3Z"/>
        <path class="cls-11" d="M58.46,62.71v-1.43c0-.08,.06-.15,.15-.15h0c.08,0,.15,.06,.15,.15v1.43h-.29Z"/>
        <path class="cls-3" d="M55.94,61.46c0-.13,1-.23,1.65-.23s.73,.1,.73,.23-.08,.23-.73,.23-1.65-.1-1.65-.23Z"/>
        <path class="cls-3" d="M61.28,61.46c0-.13-1-.23-1.65-.23s-.73,.1-.73,.23,.08,.23,.73,.23,1.65-.1,1.65-.23Z"/>
        <path class="cls-11" d="M58.93,63.14h-.64v-.47c0-.18,.14-.32,.32-.32h0c.18,0,.32,.14,.32,.32v.47Z"/>
        <path class="cls-11" d="M80.42,62.71v-1.43c0-.08-.06-.15-.15-.15h0c-.08,0-.15,.06-.15,.15v1.43h.29Z"/>
        <path class="cls-3" d="M82.94,61.46c0-.13-1-.23-1.65-.23s-.73,.1-.73,.23,.08,.23,.73,.23,1.65-.1,1.65-.23Z"/>
        <path class="cls-3" d="M77.6,61.46c0-.13,1-.23,1.65-.23s.73,.1,.73,.23-.08,.23-.73,.23-1.65-.1-1.65-.23Z"/>
        <path class="cls-11" d="M79.95,63.14h.64v-.47c0-.18-.14-.32-.32-.32h0c-.18,0-.32,.14-.32,.32v.47Z"/>
        <path class="cls-11" d="M66.03,61.75s.21-.99,3.41-.99v1.59l-3.41-.6Z"/>
        <path class="cls-11" d="M72.85,61.75s-.21-.99-3.41-.99v1.59l3.41-.6Z"/>
        <path class="cls-11" d="M69.44,61.5c-3.7,0-10.06,1.37-11.46,1.68-.16,.04-.28,.18-.28,.35h0c0,.18,.14,.34,.32,.36l7.77,.47,2.92,1.68"/>
        <path class="cls-7" d="M68.9,67.21h.54s0-1.18,0-1.18h-.54c-.25,0-.44,.2-.44,.44v.29c0,.25,.2,.44,.44,.44Z"/>
        <polygon class="cls-11" points="68.71 66.03 69.44 66.03 69.44 61.5 68.54 65.54 68.71 66.03"/>
        <path class="cls-11" d="M69.44,61.5c3.7,0,10.06,1.37,11.46,1.68,.16,.04,.28,.18,.28,.35h0c0,.18-.14,.34-.32,.36l-7.77,.47-2.92,1.68"/>
        <path class="cls-7" d="M69.99,67.21h-.54s0-1.18,0-1.18h.54c.25,0,.44,.2,.44,.44v.29c0,.25-.2,.44-.44,.44Z"/>
        <circle class="cls-3" cx="69.41" cy="66.62" r=".26"/>
        <polygon class="cls-11" points="70.17 66.03 69.44 66.03 69.44 61.5 70.34 65.54 70.17 66.03"/>
      </g>
      <g>
        <path class="cls-2" d="M68.26,122.03s3.86,1.76,4.18,5.84h.73s-.37-4.76-4.92-5.84Z"/>
        <path class="cls-6" d="M73.68,127.87s-.28-3.62-3.74-4.45c0,0,2.94,1.34,3.18,4.45h.56Z"/>
        <path class="cls-2" d="M77.87,122.01s-3.86,1.76-4.18,5.83h-.73s.37-4.76,4.91-5.83Z"/>
        <path class="cls-6" d="M73.3,128.13s-1.45-3.24,1.1-5.99c0,0-1.87,2.88-.63,5.66l-.47,.33Z"/>
        <path class="cls-4" d="M73.71,120.12s-2.05,4.08-.04,7.5l-.57,.52s-2.34-3.98,.61-8.01Z"/>
      </g>
      <g>
        <path class="cls-2" d="M82.01,124.82s3.86,1.76,4.18,5.84h.73s-.37-4.76-4.92-5.84Z"/>
        <path class="cls-6" d="M87.43,130.67s-.28-3.62-3.74-4.45c0,0,2.94,1.34,3.18,4.45h.56Z"/>
        <path class="cls-2" d="M91.62,124.8s-3.86,1.76-4.18,5.83h-.73s.37-4.76,4.91-5.83Z"/>
        <path class="cls-6" d="M87.05,130.92s-1.45-3.24,1.1-5.99c0,0-1.87,2.88-.63,5.66l-.47,.33Z"/>
        <path class="cls-4" d="M87.46,122.91s-2.05,4.08-.04,7.5l-.57,.52s-2.34-3.98,.61-8.01Z"/>
      </g>
      <g>
        <path class="cls-2" d="M66.45,111.3s3.86,1.76,4.18,5.84h.73s-.37-4.76-4.92-5.84Z"/>
        <path class="cls-6" d="M71.87,117.15s-.28-3.62-3.74-4.45c0,0,2.94,1.34,3.18,4.45h.56Z"/>
        <path class="cls-2" d="M76.06,111.28s-3.86,1.76-4.18,5.83h-.73s.37-4.76,4.91-5.83Z"/>
        <path class="cls-6" d="M71.49,117.4s-1.45-3.24,1.1-5.99c0,0-1.87,2.88-.63,5.66l-.47,.33Z"/>
        <path class="cls-4" d="M71.9,109.39s-2.05,4.08-.04,7.5l-.57,.52s-2.34-3.98,.61-8.01Z"/>
      </g>
      <g>
        <path class="cls-2" d="M53.16,108.75s3.86,1.76,4.18,5.84h.73s-.37-4.76-4.92-5.84Z"/>
        <path class="cls-6" d="M58.58,114.59s-.28-3.62-3.74-4.45c0,0,2.94,1.34,3.18,4.45h.56Z"/>
        <path class="cls-2" d="M62.77,108.72s-3.86,1.76-4.18,5.83h-.73s.37-4.76,4.91-5.83Z"/>
        <path class="cls-6" d="M58.19,114.84s-1.45-3.24,1.1-5.99c0,0-1.87,2.88-.63,5.66l-.47,.33Z"/>
        <path class="cls-4" d="M58.61,106.83s-2.05,4.08-.04,7.5l-.57,.52s-2.34-3.98,.61-8.01Z"/>
      </g>
      <g>
        <path class="cls-2" d="M51.91,99.41s3.86,1.76,4.18,5.84h.73s-.37-4.76-4.92-5.84Z"/>
        <path class="cls-6" d="M57.33,105.25s-.28-3.62-3.74-4.45c0,0,2.94,1.34,3.18,4.45h.56Z"/>
        <path class="cls-2" d="M61.52,99.39s-3.86,1.76-4.18,5.83h-.73s.37-4.76,4.91-5.83Z"/>
        <path class="cls-6" d="M56.94,105.51s-1.45-3.24,1.1-5.99c0,0-1.87,2.88-.63,5.66l-.47,.33Z"/>
        <path class="cls-4" d="M57.36,97.49s-2.05,4.08-.04,7.5l-.57,.52s-2.34-3.98,.61-8.01Z"/>
      </g>
      <g>
        <path class="cls-2" d="M40.76,77.24s3.14,1.43,3.4,4.75h.6s-.3-3.86-3.99-4.75Z"/>
        <path class="cls-6" d="M45.16,81.98s-.23-2.94-3.04-3.61c0,0,2.39,1.09,2.58,3.61h.45Z"/>
        <path class="cls-2" d="M48.56,77.22s-3.14,1.43-3.39,4.74h-.6s.3-3.86,3.99-4.74Z"/>
        <path class="cls-6" d="M44.85,82.19s-1.18-2.63,.89-4.87c0,0-1.52,2.34-.51,4.6l-.39,.27Z"/>
        <path class="cls-4" d="M45.19,75.68s-1.66,3.31-.03,6.09l-.47,.42s-1.9-3.23,.5-6.51Z"/>
      </g>
      <g>
        <path class="cls-2" d="M28.88,72.75s3,1.37,3.25,4.54h.57s-.29-3.7-3.83-4.54Z"/>
        <path class="cls-6" d="M33.09,77.29s-.22-2.82-2.91-3.46c0,0,2.28,1.04,2.47,3.46h.43Z"/>
        <path class="cls-2" d="M36.35,72.73s-3,1.37-3.25,4.54h-.57s.29-3.7,3.82-4.54Z"/>
        <path class="cls-6" d="M32.79,77.49s-1.13-2.52,.86-4.66c0,0-1.46,2.24-.49,4.41l-.37,.26Z"/>
        <path class="cls-4" d="M33.12,71.26s-1.59,3.17-.03,5.83l-.45,.4s-1.82-3.1,.48-6.23Z"/>
      </g>
      <g>
        <path class="cls-2" d="M40.25,97s3.69,1.68,4,5.58h.7s-.35-4.54-4.7-5.58Z"/>
        <path class="cls-6" d="M45.43,102.58s-.27-3.46-3.57-4.25c0,0,2.8,1.28,3.04,4.25h.53Z"/>
        <path class="cls-2" d="M49.43,96.98s-3.69,1.68-3.99,5.57h-.7s.35-4.54,4.69-5.57Z"/>
        <path class="cls-6" d="M45.06,102.83s-1.39-3.1,1.05-5.73c0,0-1.79,2.75-.6,5.41l-.45,.32Z"/>
        <path class="cls-4" d="M45.46,95.17s-1.96,3.9-.04,7.16l-.55,.49s-2.24-3.8,.59-7.66Z"/>
      </g>
      <g>
        <path class="cls-2" d="M30.15,87.45s3.86,1.76,4.18,5.84h.73s-.37-4.76-4.92-5.84Z"/>
        <path class="cls-6" d="M35.57,93.29s-.28-3.62-3.74-4.45c0,0,2.94,1.34,3.18,4.45h.56Z"/>
        <path class="cls-2" d="M39.76,87.43s-3.86,1.76-4.18,5.83h-.73s.37-4.76,4.91-5.83Z"/>
        <path class="cls-6" d="M35.19,93.55s-1.45-3.24,1.1-5.99c0,0-1.87,2.88-.63,5.66l-.47,.33Z"/>
        <path class="cls-4" d="M35.6,85.54s-2.05,4.08-.04,7.5l-.57,.52s-2.34-3.98,.61-8.01Z"/>
      </g>
      <g>
        <path class="cls-2" d="M19.84,82.55s2.62,1.19,2.84,3.96h.5s-.25-3.23-3.33-3.96Z"/>
        <path class="cls-6" d="M23.51,86.51s-.19-2.45-2.53-3.01c0,0,1.99,.91,2.16,3.01h.38Z"/>
        <path class="cls-2" d="M26.35,82.54s-2.62,1.19-2.83,3.96h-.5s.25-3.22,3.33-3.96Z"/>
        <path class="cls-6" d="M23.25,86.68s-.99-2.2,.75-4.06c0,0-1.27,1.95-.42,3.84l-.32,.22Z"/>
        <path class="cls-4" d="M23.53,81.25s-1.39,2.77-.03,5.08l-.39,.35s-1.59-2.7,.42-5.43Z"/>
      </g>
      <g>
        <path class="cls-2" d="M16.54,67.88s3.09,1.41,3.35,4.67h.59s-.29-3.81-3.93-4.67Z"/>
        <path class="cls-6" d="M20.87,72.55s-.22-2.9-2.99-3.56c0,0,2.35,1.07,2.55,3.56h.45Z"/>
        <path class="cls-2" d="M24.23,67.86s-3.09,1.41-3.34,4.67h-.59s.29-3.81,3.93-4.67Z"/>
        <path class="cls-6" d="M20.56,72.76s-1.16-2.59,.88-4.8c0,0-1.5,2.3-.5,4.53l-.38,.26Z"/>
        <path class="cls-4" d="M20.9,66.34s-1.64,3.26-.03,6l-.46,.41s-1.87-3.19,.49-6.41Z"/>
      </g>
      <g>
        <path class="cls-2" d="M7.31,67.07s2.64,1.2,2.86,4h.5s-.25-3.25-3.36-4Z"/>
        <path class="cls-6" d="M11.02,71.07s-.19-2.48-2.56-3.04c0,0,2.01,.92,2.18,3.04h.38Z"/>
        <path class="cls-2" d="M13.88,67.06s-2.64,1.2-2.86,3.99h-.5s.25-3.25,3.36-3.99Z"/>
        <path class="cls-6" d="M10.75,71.24s-.99-2.22,.75-4.1c0,0-1.28,1.97-.43,3.87l-.32,.23Z"/>
        <path class="cls-4" d="M11.04,65.76s-1.4,2.79-.03,5.13l-.39,.35s-1.6-2.72,.42-5.48Z"/>
      </g>
      <g>
        <path class="cls-2" d="M10.49,77.68s2.32,1.06,2.51,3.5h.44s-.22-2.85-2.95-3.5Z"/>
        <path class="cls-6" d="M13.74,81.19s-.17-2.17-2.24-2.67c0,0,1.76,.8,1.91,2.67h.33Z"/>
        <path class="cls-2" d="M16.25,77.67s-2.32,1.05-2.51,3.5h-.44s.22-2.85,2.95-3.5Z"/>
        <path class="cls-6" d="M13.51,81.34s-.87-1.94,.66-3.6c0,0-1.12,1.73-.38,3.4l-.28,.2Z"/>
        <path class="cls-4" d="M13.76,76.53s-1.23,2.45-.02,4.5l-.34,.31s-1.4-2.39,.37-4.81Z"/>
      </g>
      <g>
        <path class="cls-2" d="M11.21,86.67s2.48,1.13,2.69,3.75h.47s-.24-3.05-3.16-3.75Z"/>
        <path class="cls-6" d="M14.69,90.43s-.18-2.32-2.4-2.85c0,0,1.89,.86,2.04,2.85h.36Z"/>
        <path class="cls-2" d="M17.38,86.66s-2.48,1.13-2.68,3.75h-.47s.24-3.05,3.15-3.75Z"/>
        <path class="cls-6" d="M14.45,90.59s-.93-2.08,.71-3.85c0,0-1.2,1.85-.4,3.64l-.3,.21Z"/>
        <path class="cls-4" d="M14.71,85.44s-1.32,2.62-.03,4.81l-.37,.33s-1.5-2.56,.39-5.15Z"/>
      </g>
      <g>
        <path class="cls-2" d="M18.06,111.2s3.56,1.62,3.86,5.39h.68s-.34-4.39-4.54-5.39Z"/>
        <path class="cls-6" d="M23.06,116.59s-.26-3.34-3.45-4.1c0,0,2.71,1.24,2.94,4.1h.51Z"/>
        <path class="cls-2" d="M26.93,111.18s-3.56,1.62-3.86,5.38h-.68s.34-4.39,4.53-5.38Z"/>
        <path class="cls-6" d="M22.71,116.83s-1.34-2.99,1.02-5.53c0,0-1.73,2.66-.58,5.23l-.44,.3Z"/>
        <path class="cls-4" d="M23.09,109.43s-1.89,3.76-.04,6.92l-.53,.48s-2.16-3.67,.57-7.4Z"/>
      </g>
      <g>
        <path class="cls-2" d="M8.96,99.96s2.66,1.21,2.88,4.02h.51s-.25-3.27-3.38-4.02Z"/>
        <path class="cls-6" d="M12.69,103.98s-.19-2.49-2.57-3.06c0,0,2.02,.92,2.19,3.06h.38Z"/>
        <path class="cls-2" d="M15.57,99.95s-2.66,1.21-2.88,4.01h-.51s.25-3.27,3.38-4.01Z"/>
        <path class="cls-6" d="M12.43,104.16s-1-2.23,.76-4.12c0,0-1.29,1.98-.43,3.9l-.33,.23Z"/>
        <path class="cls-4" d="M12.71,98.64s-1.41,2.81-.03,5.16l-.4,.35s-1.61-2.74,.42-5.51Z"/>
      </g>
      <g>
        <path class="cls-2" d="M28.25,103.16s3.86,1.76,4.18,5.84h.73s-.37-4.76-4.92-5.84Z"/>
        <path class="cls-6" d="M33.68,109s-.28-3.62-3.74-4.45c0,0,2.94,1.34,3.18,4.45h.56Z"/>
        <path class="cls-2" d="M37.87,103.14s-3.86,1.76-4.18,5.83h-.73s.37-4.76,4.91-5.83Z"/>
        <path class="cls-6" d="M33.29,109.26s-1.45-3.24,1.1-5.99c0,0-1.87,2.88-.63,5.66l-.47,.33Z"/>
        <path class="cls-4" d="M33.71,101.25s-2.05,4.08-.04,7.5l-.57,.52s-2.34-3.98,.61-8.01Z"/>
      </g>
      <g>
        <path class="cls-2" d="M18.92,93.2s3.86,1.76,4.18,5.84h.73s-.37-4.76-4.92-5.84Z"/>
        <path class="cls-6" d="M24.34,99.04s-.28-3.62-3.74-4.45c0,0,2.94,1.34,3.18,4.45h.56Z"/>
        <path class="cls-2" d="M28.53,93.18s-3.86,1.76-4.18,5.83h-.73s.37-4.76,4.91-5.83Z"/>
        <path class="cls-6" d="M23.96,99.3s-1.45-3.24,1.1-5.99c0,0-1.87,2.88-.63,5.66l-.47,.33Z"/>
        <path class="cls-4" d="M24.37,91.29s-2.05,4.08-.04,7.5l-.57,.52s-2.34-3.98,.61-8.01Z"/>
      </g>
      <g>
        <path class="cls-2" d="M37.78,113.78s3.86,1.76,4.18,5.84h.73s-.37-4.76-4.92-5.84Z"/>
        <path class="cls-6" d="M43.2,119.62s-.28-3.62-3.74-4.45c0,0,2.94,1.34,3.18,4.45h.56Z"/>
        <path class="cls-2" d="M47.39,113.76s-3.86,1.76-4.18,5.83h-.73s.37-4.76,4.91-5.83Z"/>
        <path class="cls-6" d="M42.81,119.88s-1.45-3.24,1.1-5.99c0,0-1.87,2.88-.63,5.66l-.47,.33Z"/>
        <path class="cls-4" d="M43.23,111.86s-2.05,4.08-.04,7.5l-.57,.52s-2.34-3.98,.61-8.01Z"/>
      </g>
      <g>
        <path class="cls-2" d="M46.96,126.35s3.86,1.76,4.18,5.84h.73s-.37-4.76-4.92-5.84Z"/>
        <path class="cls-6" d="M52.38,132.2s-.28-3.62-3.74-4.45c0,0,2.94,1.34,3.18,4.45h.56Z"/>
        <path class="cls-2" d="M56.57,126.33s-3.86,1.76-4.18,5.83h-.73s.37-4.76,4.91-5.83Z"/>
        <path class="cls-6" d="M52,132.45s-1.45-3.24,1.1-5.99c0,0-1.87,2.88-.63,5.66l-.47,.33Z"/>
        <path class="cls-4" d="M52.42,124.44s-2.05,4.08-.04,7.5l-.57,.52s-2.34-3.98,.61-8.01Z"/>
      </g>
      <g>
        <path class="cls-2" d="M49.43,81.98s3.67,1.67,3.97,5.54h.7s-.35-4.52-4.67-5.54Z"/>
        <path class="cls-6" d="M54.58,87.53s-.26-3.43-3.55-4.22c0,0,2.79,1.27,3.02,4.22h.53Z"/>
        <path class="cls-2" d="M58.56,81.96s-3.66,1.67-3.97,5.54h-.7s.35-4.51,4.66-5.54Z"/>
        <path class="cls-6" d="M54.21,87.77s-1.38-3.08,1.04-5.69c0,0-1.78,2.73-.59,5.38l-.45,.31Z"/>
        <path class="cls-4" d="M54.61,80.17s-1.94,3.87-.04,7.12l-.55,.49s-2.22-3.78,.58-7.61Z"/>
      </g>
      <g>
        <path class="cls-2" d="M58.85,88.15s3.86,1.76,4.18,5.84h.73s-.37-4.76-4.92-5.84Z"/>
        <path class="cls-6" d="M64.27,93.99s-.28-3.62-3.74-4.45c0,0,2.94,1.34,3.18,4.45h.56Z"/>
        <path class="cls-2" d="M68.46,88.12s-3.86,1.76-4.18,5.83h-.73s.37-4.76,4.91-5.83Z"/>
        <path class="cls-6" d="M63.88,94.24s-1.45-3.24,1.1-5.99c0,0-1.87,2.88-.63,5.66l-.47,.33Z"/>
        <path class="cls-4" d="M64.3,86.23s-2.05,4.08-.04,7.5l-.57,.52s-2.34-3.98,.61-8.01Z"/>
      </g>
      <g>
        <path class="cls-2" d="M67.7,93.68s3.86,1.76,4.18,5.84h.73s-.37-4.76-4.92-5.84Z"/>
        <path class="cls-6" d="M73.13,99.52s-.28-3.62-3.74-4.45c0,0,2.94,1.34,3.18,4.45h.56Z"/>
        <path class="cls-2" d="M77.32,93.66s-3.86,1.76-4.18,5.83h-.73s.37-4.76,4.91-5.83Z"/>
        <path class="cls-6" d="M72.74,99.78s-1.45-3.24,1.1-5.99c0,0-1.87,2.88-.63,5.66l-.47,.33Z"/>
        <path class="cls-4" d="M73.16,91.77s-2.05,4.08-.04,7.5l-.57,.52s-2.34-3.98,.61-8.01Z"/>
      </g>
      <g>
        <path class="cls-2" d="M76.8,100.51s3.86,1.76,4.18,5.84h.73s-.37-4.76-4.92-5.84Z"/>
        <path class="cls-6" d="M82.22,106.36s-.28-3.62-3.74-4.45c0,0,2.94,1.34,3.18,4.45h.56Z"/>
        <path class="cls-2" d="M86.41,100.49s-3.86,1.76-4.18,5.83h-.73s.37-4.76,4.91-5.83Z"/>
        <path class="cls-6" d="M81.84,106.61s-1.45-3.24,1.1-5.99c0,0-1.87,2.88-.63,5.66l-.47,.33Z"/>
        <path class="cls-4" d="M82.26,98.6s-2.05,4.08-.04,7.5l-.57,.52s-2.34-3.98,.61-8.01Z"/>
      </g>
      <g>
        <path class="cls-2" d="M85.97,109.77s3.86,1.76,4.18,5.84h.73s-.37-4.76-4.92-5.84Z"/>
        <path class="cls-6" d="M91.39,115.62s-.28-3.62-3.74-4.45c0,0,2.94,1.34,3.18,4.45h.56Z"/>
        <path class="cls-2" d="M95.58,109.75s-3.86,1.76-4.18,5.83h-.73s.37-4.76,4.91-5.83Z"/>
        <path class="cls-6" d="M91.01,115.87s-1.45-3.24,1.1-5.99c0,0-1.87,2.88-.63,5.66l-.47,.33Z"/>
        <path class="cls-4" d="M91.42,107.86s-2.05,4.08-.04,7.5l-.57,.52s-2.34-3.98,.61-8.01Z"/>
      </g>
      <g>
        <path class="cls-2" d="M98.71,97.43s3.86,1.76,4.18,5.84h.73s-.37-4.76-4.92-5.84Z"/>
        <path class="cls-6" d="M104.13,103.28s-.28-3.62-3.74-4.45c0,0,2.94,1.34,3.18,4.45h.56Z"/>
        <path class="cls-2" d="M108.32,97.41s-3.86,1.76-4.18,5.83h-.73s.37-4.76,4.91-5.83Z"/>
        <path class="cls-6" d="M103.74,103.53s-1.45-3.24,1.1-5.99c0,0-1.87,2.88-.63,5.66l-.47,.33Z"/>
        <path class="cls-4" d="M104.16,95.52s-2.05,4.08-.04,7.5l-.57,.52s-2.34-3.98,.61-8.01Z"/>
      </g>
      <g>
        <path class="cls-2" d="M109.41,89.48s3.86,1.76,4.18,5.84h.73s-.37-4.76-4.92-5.84Z"/>
        <path class="cls-6" d="M114.83,95.32s-.28-3.62-3.74-4.45c0,0,2.94,1.34,3.18,4.45h.56Z"/>
        <path class="cls-2" d="M119.02,89.46s-3.86,1.76-4.18,5.83h-.73s.37-4.76,4.91-5.83Z"/>
        <path class="cls-6" d="M114.44,95.58s-1.45-3.24,1.1-5.99c0,0-1.87,2.88-.63,5.66l-.47,.33Z"/>
        <path class="cls-4" d="M114.86,87.56s-2.05,4.08-.04,7.5l-.57,.52s-2.34-3.98,.61-8.01Z"/>
      </g>
      <g>
        <path class="cls-2" d="M110.25,111.06s3.86,1.76,4.18,5.84h.73s-.37-4.76-4.92-5.84Z"/>
        <path class="cls-6" d="M115.67,116.9s-.28-3.62-3.74-4.45c0,0,2.94,1.34,3.18,4.45h.56Z"/>
        <path class="cls-2" d="M119.87,111.04s-3.86,1.76-4.18,5.83h-.73s.37-4.76,4.91-5.83Z"/>
        <path class="cls-6" d="M115.29,117.16s-1.45-3.24,1.1-5.99c0,0-1.87,2.88-.63,5.66l-.47,.33Z"/>
        <path class="cls-4" d="M115.71,109.14s-2.05,4.08-.04,7.5l-.57,.52s-2.34-3.98,.61-8.01Z"/>
      </g>
      <g>
        <path class="cls-2" d="M121.2,98.72s3.86,1.76,4.18,5.84h.73s-.37-4.76-4.92-5.84Z"/>
        <path class="cls-6" d="M126.62,104.56s-.28-3.62-3.74-4.45c0,0,2.94,1.34,3.18,4.45h.56Z"/>
        <path class="cls-2" d="M130.81,98.69s-3.86,1.76-4.18,5.83h-.73s.37-4.76,4.91-5.83Z"/>
        <path class="cls-6" d="M126.23,104.81s-1.45-3.24,1.1-5.99c0,0-1.87,2.88-.63,5.66l-.47,.33Z"/>
        <path class="cls-4" d="M126.65,96.8s-2.05,4.08-.04,7.5l-.57,.52s-2.34-3.98,.61-8.01Z"/>
      </g>
      <g>
        <path class="cls-2" d="M119.94,80.97s3.86,1.76,4.18,5.84h.73s-.37-4.76-4.92-5.84Z"/>
        <path class="cls-6" d="M125.36,86.81s-.28-3.62-3.74-4.45c0,0,2.94,1.34,3.18,4.45h.56Z"/>
        <path class="cls-2" d="M129.55,80.95s-3.86,1.76-4.18,5.83h-.73s.37-4.76,4.91-5.83Z"/>
        <path class="cls-6" d="M124.98,87.07s-1.45-3.24,1.1-5.99c0,0-1.87,2.88-.63,5.66l-.47,.33Z"/>
        <path class="cls-4" d="M125.4,79.05s-2.05,4.08-.04,7.5l-.57,.52s-2.34-3.98,.61-8.01Z"/>
      </g>
      <g>
        <path class="cls-2" d="M94.51,117.88s3.86,1.76,4.18,5.84h.73s-.37-4.76-4.92-5.84Z"/>
        <path class="cls-6" d="M99.93,123.72s-.28-3.62-3.74-4.45c0,0,2.94,1.34,3.18,4.45h.56Z"/>
        <path class="cls-2" d="M104.12,117.86s-3.86,1.76-4.18,5.83h-.73s.37-4.76,4.91-5.83Z"/>
        <path class="cls-6" d="M99.54,123.98s-1.45-3.24,1.1-5.99c0,0-1.87,2.88-.63,5.66l-.47,.33Z"/>
        <path class="cls-4" d="M99.96,115.97s-2.05,4.08-.04,7.5l-.57,.52s-2.34-3.98,.61-8.01Z"/>
      </g>
    </g>
  </g>
</svg>